<svg xmlns="http://www.w3.org/2000/svg" viewBox="0 0 800 400" width="800" height="400">
  <rect width="800" height="400" fill="#f0f0f0"/>
  <rect x="0" y="0" width="400" height="400" fill="#004BA0"/>
  <rect x="400" y="0" width="400" height="400" fill="#FFCC00"/>
  
  <!-- Mumbai Indians Elements -->
  <text x="200" y="130" font-family="Arial" font-size="24" font-weight="bold" text-anchor="middle" fill="#FFFFFF">MUMBAI</text>
  <text x="200" y="160" font-family="Arial" font-size="24" font-weight="bold" text-anchor="middle" fill="#FFFFFF">INDIANS</text>
  <circle cx="200" cy="220" r="50" fill="#FFFFFF"/>
  <path d="M165,200 L235,240 M165,240 L235,200" stroke="#004BA0" stroke-width="8"/>
  <circle cx="200" cy="220" r="15" fill="#FFCC00"/>
  
  <!-- Chennai Super Kings Elements -->
  <text x="600" y="130" font-family="Arial" font-size="24" font-weight="bold" text-anchor="middle" fill="#004BA0">CHENNAI</text>
  <text x="600" y="160" font-family="Arial" font-size="24" font-weight="bold" text-anchor="middle" fill="#004BA0">SUPER KINGS</text>
  <circle cx="600" cy="220" r="50" fill="#004BA0"/>
  <text x="600" y="230" font-family="Arial" font-size="40" font-weight="bold" text-anchor="middle" fill="#FFCC00">CSK</text>
  <path d="M570,190 L630,190 M570,250 L630,250" stroke="#FFCC00" stroke-width="5"/>
  
  <!-- Team Names -->
  <text x="200" y="320" font-family="Arial" font-size="32" font-weight="bold" text-anchor="middle" fill="#FFFFFF">MUMBAI INDIANS</text>
  <text x="600" y="320" font-family="Arial" font-size="32" font-weight="bold" text-anchor="middle" fill="#004BA0">CSK</text>
  
  <!-- VS Text -->
  <text x="400" y="200" font-family="Arial" font-size="48" font-weight="bold" text-anchor="middle" fill="#333">VS</text>
  
  <!-- Cricket Elements -->
  <rect x="380" y="240" width="40" height="5" fill="#333"/>
  <circle cx="400" cy="230" r="10" fill="#004BA0"/>
</svg>